<svg xmlns="http://www.w3.org/2000/svg" width="42" height="37" viewBox="0 0 42 37">
  <metadata><?xpacket begin="﻿" id="W5M0MpCehiHzreSzNTczkc9d"?>
<x:xmpmeta xmlns:x="adobe:ns:meta/" x:xmptk="Adobe XMP Core 5.6-c142 79.160924, 2017/07/13-01:06:39        ">
   <rdf:RDF xmlns:rdf="http://www.w3.org/1999/02/22-rdf-syntax-ns#">
      <rdf:Description rdf:about=""/>
   </rdf:RDF>
</x:xmpmeta>
                                                                                                    
                                                                                                    
                                                                                                    
                                                                                                    
                                                                                                    
                                                                                                    
                                                                                                    
                                                                                                    
                                                                                                    
                                                                                                    
                                                                                                    
                                                                                                    
                                                                                                    
                                                                                                    
                                                                                                    
                                                                                                    
                                                                                                    
                                                                                                    
                                                                                                    
                                                                                                    
                           
<?xpacket end="w"?></metadata>
<defs>
    <style>
      .cls-1 {
        fill: #fff;
        fill-rule: evenodd;
      }
    </style>
  </defs>
  <path id="Rounded_Rectangle_1_copy_2" data-name="Rounded Rectangle 1 copy 2" class="cls-1" d="M648.453,36h37.094A2.453,2.453,0,0,1,688,38.453v2.026a2.453,2.453,0,0,1-2.453,2.453H648.453A2.453,2.453,0,0,1,646,40.479V38.453A2.453,2.453,0,0,1,648.453,36Zm0,15.012h37.094A2.453,2.453,0,0,1,688,53.465v2.026a2.453,2.453,0,0,1-2.453,2.453H648.453A2.453,2.453,0,0,1,646,55.491V53.465A2.453,2.453,0,0,1,648.453,51.012Zm0,15.056h37.094A2.453,2.453,0,0,1,688,68.521v2.026A2.453,2.453,0,0,1,685.547,73H648.453A2.453,2.453,0,0,1,646,70.547V68.521A2.453,2.453,0,0,1,648.453,66.068Z" transform="translate(-646 -36)"/>
</svg>
