<svg xmlns="http://www.w3.org/2000/svg" width="30" height="18" viewBox="0 0 30 18">
  <metadata><?xpacket begin="﻿" id="W5M0MpCehiHzreSzNTczkc9d"?>
<x:xmpmeta xmlns:x="adobe:ns:meta/" x:xmptk="Adobe XMP Core 5.6-c142 79.160924, 2017/07/13-01:06:39        ">
   <rdf:RDF xmlns:rdf="http://www.w3.org/1999/02/22-rdf-syntax-ns#">
      <rdf:Description rdf:about=""/>
   </rdf:RDF>
</x:xmpmeta>
                                                                                                    
                                                                                                    
                                                                                                    
                                                                                                    
                                                                                                    
                                                                                                    
                                                                                                    
                                                                                                    
                                                                                                    
                                                                                                    
                                                                                                    
                                                                                                    
                                                                                                    
                                                                                                    
                                                                                                    
                                                                                                    
                                                                                                    
                                                                                                    
                                                                                                    
                                                                                                    
                           
<?xpacket end="w"?></metadata>
<defs>
    <style>
      .cls-1 {
        fill: #666;
        fill-rule: evenodd;
      }
    </style>
  </defs>
  <path id="펼쳐보기_화살표" data-name="펼쳐보기 화살표" class="cls-1" d="M449.173,968.58c-0.645.633-1.292,1.263-1.935,1.9q-2.817,2.783-5.63,5.567a1.187,1.187,0,0,0-.137.147,0.51,0.51,0,0,0,.051.663,0.518,0.518,0,0,0,.65.056,1.855,1.855,0,0,0,.242-0.219l8.31-8.219a0.55,0.55,0,0,0,0-.951l-8.311-8.217c-0.06-.059-0.116-0.122-0.18-0.175a0.526,0.526,0,0,0-.711.019,0.513,0.513,0,0,0-.027.684,1.9,1.9,0,0,0,.14.144q3.646,3.606,7.294,7.209a2.27,2.27,0,0,0,.284.207l-0.053.1H421.8a3.46,3.46,0,0,0-.353.007,0.5,0.5,0,0,0,.006,1c0.117,0.011.236,0.007,0.353,0.007h27.341Z" transform="translate(-421 -959)"/>
</svg>
