<svg xmlns="http://www.w3.org/2000/svg" width="60" height="68" viewBox="0 0 60 68">
  <metadata><?xpacket begin="﻿" id="W5M0MpCehiHzreSzNTczkc9d"?>
<x:xmpmeta xmlns:x="adobe:ns:meta/" x:xmptk="Adobe XMP Core 5.6-c142 79.160924, 2017/07/13-01:06:39        ">
   <rdf:RDF xmlns:rdf="http://www.w3.org/1999/02/22-rdf-syntax-ns#">
      <rdf:Description rdf:about=""/>
   </rdf:RDF>
</x:xmpmeta>
                                                                                                    
                                                                                                    
                                                                                                    
                                                                                                    
                                                                                                    
                                                                                                    
                                                                                                    
                                                                                                    
                                                                                                    
                                                                                                    
                                                                                                    
                                                                                                    
                                                                                                    
                                                                                                    
                                                                                                    
                                                                                                    
                                                                                                    
                                                                                                    
                                                                                                    
                                                                                                    
                           
<?xpacket end="w"?></metadata>
<defs>
    <style>
      .cls-1 {
        fill: #444;
        fill-rule: evenodd;
      }
    </style>
  </defs>
  <path id="가계부_아이콘" data-name="가계부 아이콘" class="cls-1" d="M421.006,823.666q0,13.528,0,27.058a8.554,8.554,0,0,0,.962,4.627A7.029,7.029,0,0,0,428.281,859q11.318,0.015,22.636.006,14.294,0,28.587,0a1.181,1.181,0,0,0,1.332-.593,1.3,1.3,0,0,0-.514-1.446,16.219,16.219,0,0,1-1.479-1.611,4.936,4.936,0,0,1-.273-6.426c0.529-.789,1.255-1.443,1.817-2.213a2.617,2.617,0,0,0,.587-1.373q0.041-24.969.012-49.938a4.113,4.113,0,0,0-4.408-4.4q-19.935-.014-39.87,0c-3.739,0-7.478-.007-11.216,0a4.176,4.176,0,0,0-4.467,4.443c-0.021,8.494-.009,16.988-0.009,25.483v2.74h-0.01ZM432.859,793.1h1.123l19.625,0,22.975,0a2.041,2.041,0,0,1,2.26,2.167q0,23.116,0,46.233v3.01H432.859V793.1Zm44.61,63.8H476.7l-29.674-.006q-9.333,0-18.667,0a5.105,5.105,0,1,1-.1-10.21c1.823-.032,3.647-0.006,5.47-0.006q21.5,0,43.009,0c0.192,0,.384.02,0.686,0.036a8,8,0,0,0-1.955,5.022A8.664,8.664,0,0,0,477.469,856.9Zm-54.292-10.148c-0.014-.281-0.027-0.433-0.027-0.586q0-4.691,0-9.382,0-20.682,0-41.365a2.017,2.017,0,0,1,1.818-2.258c1.878-.1,3.765-0.027,5.676-0.027v51.442c-1.321.085-2.62,0.086-3.893,0.271A7.025,7.025,0,0,0,423.177,846.752Zm30.864-5.638a14.7,14.7,0,1,0-14.687-14.5A14.7,14.7,0,0,0,454.041,841.114Zm0.14-27.265a12.564,12.564,0,1,1-12.61,12.748A12.581,12.581,0,0,1,454.181,813.849Zm-0.109-8.841q-7.039,0-14.079,0a1.2,1.2,0,0,0-1.234.544,1.091,1.091,0,0,0,1.1,1.606c1.686,0.015,3.372,0,5.058,0l23.033,0c0.137,0,.274,0,0.41,0a1.041,1.041,0,0,0,1.16-1.065,1.056,1.056,0,0,0-1.161-1.077c-1.48-.02-2.961-0.012-4.442-0.013h-9.842v0.008Zm-0.046-6.589q-5.739,0-11.478,0a1.053,1.053,0,0,0-1.2,1.37,1.155,1.155,0,0,0,1.29.781q3.142-.008,6.285,0,8.128,0,16.259,0a4.718,4.718,0,0,0,.816-0.037,1.011,1.011,0,0,0,.872-1.124,0.971,0.971,0,0,0-.956-0.976c-0.521-.038-1.047-0.009-1.571-0.009H454.026v0Zm-2.962,52.308h-15.72c-0.2,0-.411-0.01-0.615.009a0.988,0.988,0,0,0-.964,1.1,0.935,0.935,0,0,0,.991.99c1.5,0.024,3.007.017,4.511,0.017l27.612-.006c0.114,0,.228,0,0.341,0a1.022,1.022,0,0,0,1.044-1.105,1,1,0,0,0-1.071-.994c-1.822-.013-3.645-0.006-5.467-0.006H451.064Zm6.685-28.953c0.212-.6.407-1.156,0.666-1.89-0.924-.227-1.782-0.489-2.659-0.633a0.632,0.632,0,0,1-.677-0.771,10.423,10.423,0,0,0,0-1.369,1.055,1.055,0,0,0-2.109.024c-0.017.729,0,1.458,0,2.133a16.536,16.536,0,0,0-1.637.807,3.377,3.377,0,0,0-.1,5.883,21.657,21.657,0,0,0,2.559,1.266,14.93,14.93,0,0,1,1.636.829,1.9,1.9,0,0,1-.466,3.378,5.452,5.452,0,0,1-3.616-.082c-0.515-.163-1.018-0.365-1.573-0.567-0.2.622-.4,1.219-0.655,2l3.856,0.968c0,0.507-.011,1.1,0,1.687a1.014,1.014,0,0,0,1.059,1.154,0.959,0.959,0,0,0,1.034-1.153,1.96,1.96,0,0,1,1.647-2.5,3.147,3.147,0,0,0,2.163-2.9,3.447,3.447,0,0,0-1.622-3.584,28.444,28.444,0,0,0-2.827-1.338c-0.453-.21-0.923-0.388-1.36-0.627a1.605,1.605,0,0,1-.914-1.753,1.744,1.744,0,0,1,1.273-1.46,5.156,5.156,0,0,1,3.156.082C456.948,821.461,457.305,821.614,457.749,821.774Z" transform="translate(-421 -791)"/>
</svg>
