<svg xmlns="http://www.w3.org/2000/svg" width="39" height="39" viewBox="0 0 39 39">
  <metadata><?xpacket begin="﻿" id="W5M0MpCehiHzreSzNTczkc9d"?>
<x:xmpmeta xmlns:x="adobe:ns:meta/" x:xmptk="Adobe XMP Core 5.6-c142 79.160924, 2017/07/13-01:06:39        ">
   <rdf:RDF xmlns:rdf="http://www.w3.org/1999/02/22-rdf-syntax-ns#">
      <rdf:Description rdf:about=""/>
   </rdf:RDF>
</x:xmpmeta>
                                                                                                    
                                                                                                    
                                                                                                    
                                                                                                    
                                                                                                    
                                                                                                    
                                                                                                    
                                                                                                    
                                                                                                    
                                                                                                    
                                                                                                    
                                                                                                    
                                                                                                    
                                                                                                    
                                                                                                    
                                                                                                    
                                                                                                    
                                                                                                    
                                                                                                    
                                                                                                    
                           
<?xpacket end="w"?></metadata>
<defs>
    <style>
      .cls-1 {
        fill: #555;
        fill-rule: evenodd;
      }
    </style>
  </defs>
  <path id="카드등록" class="cls-1" d="M425.741,1197.18h19.111a3.066,3.066,0,0,1,.429.01,0.856,0.856,0,0,1,.771.88,0.848,0.848,0,0,1-.781.83c-0.167.01-.338,0.01-0.507,0.01h-18.5c-0.544,0-.544,0-0.544.55,0,0.89,0,1.77,0,2.65,0,0.15.012,0.29,0.021,0.47H439.5a3.291,3.291,0,0,1,.544.03,0.842,0.842,0,0,1,.706.89,0.864,0.864,0,0,1-.8.82c-0.142.01-.286,0-0.429,0H425.738a4.731,4.731,0,0,0,.193,2.17,2.205,2.205,0,0,0,2.118,1.33c1.249,0,2.5,0,3.747-.01q3.084,0,6.167.01a2.815,2.815,0,0,1,.5.03,0.831,0.831,0,0,1,.65.78,0.817,0.817,0,0,1-.551.85,1.666,1.666,0,0,1-.5.07q-5,.015-9.992,0a3.943,3.943,0,0,1-3.959-3.02,4.079,4.079,0,0,1-.114-0.96q-0.009-9.795,0-19.6a3.908,3.908,0,0,1,3.854-3.95c1.938-.03,3.877-0.01,5.816-0.01q10.675,0,21.351-.01a4.015,4.015,0,0,1,3.695,1.98,3.675,3.675,0,0,1,.54,1.96c0,3.87,0,7.73,0,11.6a0.876,0.876,0,0,1-.877,1.01,0.868,0.868,0,0,1-.846-1q0-5.625,0-11.24a2.3,2.3,0,0,0-2.571-2.58H428.225a2.282,2.282,0,0,0-2.5,2.49q-0.008,5.25,0,10.5C425.719,1196.86,425.733,1197,425.741,1197.18ZM452.135,1221A10.87,10.87,0,1,1,463,1210.24,10.865,10.865,0,0,1,452.135,1221Zm-9.168-10.9a9.152,9.152,0,1,0,9.236-9.12A9.185,9.185,0,0,0,442.967,1210.1Zm-10.305-18.7h1.521a0.871,0.871,0,0,1,.944.83,0.851,0.851,0,0,1-.915.9c-1.053.02-2.107,0.02-3.16,0.01a0.846,0.846,0,0,1-.9-0.88,0.86,0.86,0,0,1,.949-0.86h1.561Zm18.588,17.87v-2.35c0-.17-0.008-0.34,0-0.51a0.839,0.839,0,0,1,.861-0.82,0.821,0.821,0,0,1,.865.82c0.025,0.6.008,1.19,0.009,1.79v1.07h0.456c0.729,0,1.457-.01,2.186,0a0.873,0.873,0,1,1-.015,1.71c-0.728.01-1.458,0.03-2.185,0-0.374-.02-0.461.12-0.45,0.46,0.024,0.74.011,1.49,0.007,2.23a0.879,0.879,0,1,1-1.739,0c0-.78-0.011-1.56,0-2.34a0.291,0.291,0,0,0-.36-0.35q-1.191.015-2.381,0a0.843,0.843,0,0,1-.943-0.86,0.852,0.852,0,0,1,.953-0.85C449.407,1209.26,450.291,1209.27,451.25,1209.27Z" transform="translate(-424 -1182)"/>
</svg>
