<svg xmlns="http://www.w3.org/2000/svg" width="37" height="42" viewBox="0 0 37 42">
  <metadata><?xpacket begin="﻿" id="W5M0MpCehiHzreSzNTczkc9d"?>
<x:xmpmeta xmlns:x="adobe:ns:meta/" x:xmptk="Adobe XMP Core 5.6-c142 79.160924, 2017/07/13-01:06:39        ">
   <rdf:RDF xmlns:rdf="http://www.w3.org/1999/02/22-rdf-syntax-ns#">
      <rdf:Description rdf:about=""/>
   </rdf:RDF>
</x:xmpmeta>
                                                                                                    
                                                                                                    
                                                                                                    
                                                                                                    
                                                                                                    
                                                                                                    
                                                                                                    
                                                                                                    
                                                                                                    
                                                                                                    
                                                                                                    
                                                                                                    
                                                                                                    
                                                                                                    
                                                                                                    
                                                                                                    
                                                                                                    
                                                                                                    
                                                                                                    
                                                                                                    
                           
<?xpacket end="w"?></metadata>
<defs>
    <style>
      .cls-1 {
        fill: #fff;
        fill-rule: evenodd;
      }
    </style>
  </defs>
  <path id="회원관리_아이콘" data-name="회원관리 아이콘" class="cls-1" d="M459.1,1117.8v-5.46q0-9.165,0-18.32a0.729,0.729,0,0,0-.878-0.82h-10.2c0.192-1.07.373-2.09,0.563-3.12,0.147-.79-0.088-1.08-0.9-1.08H438.44c-0.828,0-1.05.28-.9,1.11,0.178,1.02.354,2.03,0.538,3.09H427.891a0.742,0.742,0,0,0-.889.89q0,9.585,0,19.16,0,8.4,0,16.8a0.769,0.769,0,0,0,.924.95h30.3a0.738,0.738,0,0,0,.871-0.87c0-1.77-.008-3.53.011-5.3a1.136,1.136,0,0,1,.236-0.66c1.449-1.74,2.917-3.48,4.38-5.21a0.75,0.75,0,0,0-.037-1.19c-0.625-.63-1.249-1.26-1.883-1.88a0.71,0.71,0,0,0-1.217.07C460.117,1116.54,459.653,1117.11,459.1,1117.8Zm-1.4-23.18v3.43q0,10.575,0,21.17a0.72,0.72,0,0,1-.074.41c-0.674.87-1.366,1.73-2.078,2.62-0.514-.52-0.991-1.01-1.476-1.49a0.675,0.675,0,0,0-1.042-.06q-1.069,1.035-2.1,2.1a0.676,0.676,0,0,0,.015,1.02q2.058,2.07,4.133,4.14a0.667,0.667,0,0,0,1.065-.05c0.409-.45.8-0.92,1.2-1.39,0.1-.11.2-0.21,0.336-0.36v3.41H428.421v-34.95h9.911c0.209,1.17.415,2.31,0.622,3.46a0.714,0.714,0,0,0,.731.72h6.757a0.678,0.678,0,0,0,.713-0.63c0.026-.16.056-0.32,0.083-0.48,0.177-1.02.354-2.05,0.53-3.07H457.7Zm-11.853,2.76h-5.586c-0.417-2.33-.829-4.63-1.244-6.94h8.075C446.67,1092.77,446.259,1095.06,445.844,1097.38Zm9.78,29c-1.052-1.05-2.094-2.09-3.082-3.08l1-1.09c0.489,0.49.964,0.98,1.447,1.46a0.729,0.729,0,0,0,1.274-.07c1.17-1.47,2.338-2.93,3.508-4.4,0.485-.61.972-1.22,1.45-1.81,0.38,0.37.73,0.72,1.094,1.07C460.069,1121.12,457.826,1123.78,455.624,1126.38ZM443.1,1117h10.9a0.759,0.759,0,0,0,.918-0.91q0-7.5,0-15a0.751,0.751,0,0,0-.9-0.89H432.085a0.743,0.743,0,0,0-.9.85q0,7.5,0,15a0.778,0.778,0,0,0,.965.95H443.1Zm10.4-1.42h-5.561v-0.89c0-.82,0-1.63,0-2.45a3.459,3.459,0,0,0-2.227-3.42c1.2-2.11,1.04-3.81-.462-5.06a3.485,3.485,0,0,0-4.422.02c-1.491,1.28-1.642,3-.432,5.04-0.049.03-.1,0.05-0.145,0.08a3.413,3.413,0,0,0-2.088,3.38c0.007,0.94,0,1.89,0,2.84v0.45h-5.547v-13.95H453.5v13.96Zm-13.924,0c0-1.28-.044-2.53.013-3.78a1.966,1.966,0,0,1,1.969-1.8c0.987-.01,1.975,0,2.962,0a1.945,1.945,0,0,1,1.984,1.73c0.081,1.27.02,2.55,0.02,3.85h-6.948Zm3.479-6.98a2.1,2.1,0,1,1,2.092-2.12A2.114,2.114,0,0,1,443.05,1108.6Zm4.865,15.37v-1.35H431.221v1.35h16.694Zm-9.034,2.86v1.35h11.113v-1.35H438.881Zm2.759-7.06v-1.35H431.21v1.35h10.43Zm-10.434,7.06v1.35h6.228v-1.35h-6.228Zm11.86-8.4v1.35H447.2v-1.35h-4.136Zm8.32-.03H448.91a2.339,2.339,0,0,0-.248.01v1.36h2.724v-1.37Zm-8.351-22.4a2.1,2.1,0,1,0-2.078-2.12A2.094,2.094,0,0,0,443.035,1096Zm0.048-1.4a0.693,0.693,0,0,1-.725-0.66,0.693,0.693,0,1,1,1.384-.07A0.708,0.708,0,0,1,443.083,1094.6Z" transform="translate(-427 -1089)"/>
</svg>
