<svg xmlns="http://www.w3.org/2000/svg" width="41" height="37" viewBox="0 0 41 37">
  <metadata><?xpacket begin="﻿" id="W5M0MpCehiHzreSzNTczkc9d"?>
<x:xmpmeta xmlns:x="adobe:ns:meta/" x:xmptk="Adobe XMP Core 5.6-c142 79.160924, 2017/07/13-01:06:39        ">
   <rdf:RDF xmlns:rdf="http://www.w3.org/1999/02/22-rdf-syntax-ns#">
      <rdf:Description rdf:about=""/>
   </rdf:RDF>
</x:xmpmeta>
                                                                                                    
                                                                                                    
                                                                                                    
                                                                                                    
                                                                                                    
                                                                                                    
                                                                                                    
                                                                                                    
                                                                                                    
                                                                                                    
                                                                                                    
                                                                                                    
                                                                                                    
                                                                                                    
                                                                                                    
                                                                                                    
                                                                                                    
                                                                                                    
                                                                                                    
                                                                                                    
                           
<?xpacket end="w"?></metadata>
<defs>
    <style>
      .cls-1 {
        fill: #555;
        fill-rule: evenodd;
      }
    </style>
  </defs>
  <path class="cls-1" d="M660.559,1376.99c-1.029.97-2.015,1.91-3.007,2.84a1.25,1.25,0,0,0-.452,1.51,1.362,1.362,0,0,0,1.425.78c5.257-.01,10.516.06,15.771-0.03a17.734,17.734,0,0,0,10.992-3.84c6.795-5.4,6.671-14.32-.253-19.58a19.49,19.49,0,0,0-23.151.3c-5.84,4.71-6.522,12.01-1.65,17.63C660.318,1376.7,660.4,1376.8,660.559,1376.99Zm0.917,2.51c0.435-.4.857-0.78,1.267-1.17,1.231-1.17,1.228-1.58-.009-2.76a9.294,9.294,0,0,1-.053-13.95c5.727-5.56,16.353-5.52,22.025.08a9.269,9.269,0,0,1,.042,13.68,13.272,13.272,0,0,1-8.821,4.06C671.167,1379.68,666.385,1379.5,661.476,1379.5Zm32.94,7.34a12.658,12.658,0,0,0,3.3-5.98,11.416,11.416,0,0,0-2.745-10.2,1.339,1.339,0,0,0-1.894-.32,1.223,1.223,0,0,0-.063,1.9c3.56,4.48,3.186,9.46-1.006,13.42-0.889.83-.9,1.43-0.027,2.27,0.491,0.47,1,.92,1.641,1.5-0.374.04-.562,0.07-0.751,0.07-3.949.01-7.9,0.08-11.846-.01-4.918-.12-9.091-1.81-12.057-5.77a1.291,1.291,0,0,0-1.868-.41,1.219,1.219,0,0,0-.214,1.84,16.2,16.2,0,0,0,10.064,6.33,21.908,21.908,0,0,0,4.277.47c5.042,0.06,10.086.02,15.129,0.03a1.434,1.434,0,0,0,1.521-.76,1.317,1.317,0,0,0-.533-1.62C696.366,1388.69,695.4,1387.77,694.416,1386.84Zm-20.85-21.97h-7.2c-1.091,0-1.671.42-1.686,1.21s0.582,1.25,1.648,1.25h14.793a1.256,1.256,0,1,0-.041-2.46c-1.626-.01-3.252-0.01-4.878-0.01h-2.639v0.01Zm-2.446,4.93c-1.624,0-3.249-.01-4.874,0a1.263,1.263,0,1,0-.026,2.46c3.222,0.01,6.445,0,9.667,0,1.022,0,1.59-.45,1.6-1.22,0.01-.79-0.584-1.24-1.654-1.24C674.263,1369.79,672.691,1369.8,671.12,1369.8Z" transform="translate(-657 -1355)"/>
</svg>
