<svg xmlns="http://www.w3.org/2000/svg" width="74" height="66.969" viewBox="0 0 74 66.969">
  <metadata><?xpacket begin="﻿" id="W5M0MpCehiHzreSzNTczkc9d"?>
<x:xmpmeta xmlns:x="adobe:ns:meta/" x:xmptk="Adobe XMP Core 5.6-c142 79.160924, 2017/07/13-01:06:39        ">
   <rdf:RDF xmlns:rdf="http://www.w3.org/1999/02/22-rdf-syntax-ns#">
      <rdf:Description rdf:about=""/>
   </rdf:RDF>
</x:xmpmeta>
                                                                                                    
                                                                                                    
                                                                                                    
                                                                                                    
                                                                                                    
                                                                                                    
                                                                                                    
                                                                                                    
                                                                                                    
                                                                                                    
                                                                                                    
                                                                                                    
                                                                                                    
                                                                                                    
                                                                                                    
                                                                                                    
                                                                                                    
                                                                                                    
                                                                                                    
                                                                                                    
                           
<?xpacket end="w"?></metadata>
<defs>
    <style>
      .cls-1 {
        fill: #444;
        fill-rule: evenodd;
      }
    </style>
  </defs>
  <path id="소비패턴_아이콘" data-name="소비패턴 아이콘" class="cls-1" d="M625.042,802.593a0.419,0.419,0,0,0,.072-0.374,5.447,5.447,0,0,1-.215-2.557,5.356,5.356,0,0,1,10.328-.935,5.258,5.258,0,0,1-2.1,6.206c-0.178.12-.31,0.2-0.2,0.465q1.235,2.9,2.428,5.821a0.36,0.36,0,0,0,.506.255,5.143,5.143,0,0,1,3.8.591,0.367,0.367,0,0,0,.563-0.094q1.6-1.849,3.215-3.678a0.345,0.345,0,0,0,.02-0.514,5.085,5.085,0,0,1-.889-3.715,5.357,5.357,0,0,1,10.6,0,5.041,5.041,0,0,1-2.157,5.019,5.178,5.178,0,0,1-5.443.5,0.439,0.439,0,0,0-.632.12c-1.042,1.216-2.09,2.428-3.163,3.618a0.581,0.581,0,0,0-.1.81,5.3,5.3,0,0,1-4.662,7.848,5.1,5.1,0,0,1-4.872-3.079,4.867,4.867,0,0,1,.792-5.648,1.415,1.415,0,0,0,.281-1.859c-0.8-1.724-1.488-3.5-2.209-5.257a0.453,0.453,0,0,0-.529-0.335,5.307,5.307,0,0,1-3.908-1.37c-0.078-.068-0.158-0.133-0.243-0.2-1.088.775-2.16,1.528-3.212,2.307a0.546,0.546,0,0,0-.109.474,22.887,22.887,0,0,1,.708,4.28,20.727,20.727,0,0,1-1.112,8.36c-0.447,1.274-1.039,2.5-1.59,3.8l8.168,6.891a4.582,4.582,0,0,1,3.807-.813,5.633,5.633,0,0,1,2.465,1.438q8.433,7.136,16.88,14.255a4.413,4.413,0,0,1,.511,6.433q-2.007,2.342-4.024,4.673a4.467,4.467,0,0,1-6.387.585c-2.637-2.181-5.236-4.406-7.852-6.612q-4.842-4.085-9.685-8.169a4.383,4.383,0,0,1-1.2-5.247,0.38,0.38,0,0,0-.122-0.535q-3.869-3.249-7.721-6.518a0.36,0.36,0,0,0-.545-0.017,21.648,21.648,0,0,1-10.951,4.424,20.91,20.91,0,0,1-10.379-1.339,21.367,21.367,0,0,1-13.3-14.967,20.368,20.368,0,0,1-.271-9.3,21.019,21.019,0,0,1,7.652-12.708,21.4,21.4,0,0,1,18.543-4.385,21.033,21.033,0,0,1,13.441,9.093c0.834,1.228,1.487,2.577,2.251,3.918C623.175,803.929,624.116,803.271,625.042,802.593Zm0.064,32.347,2.66-3.09-9.515-8.029a19.4,19.4,0,0,0,2.362-17.395,18.879,18.879,0,0,0-8.582-10.589,19.864,19.864,0,0,0-25.621,4.643A19.738,19.738,0,0,0,615.578,826.9Zm9.22-2.225c-0.275-.233-0.551-0.466-0.832-0.692a2.392,2.392,0,0,0-3.307.2q-2.192,2.466-4.3,5.009a2.322,2.322,0,0,0,.347,3.321c1.115,0.956,2.242,1.9,3.426,2.9l7.285-8.512C636.053,834.18,635.19,833.446,634.326,832.715Zm-3.093,12.058,3.151,2.658,7.295-8.5-3.144-2.664Zm7.884,6.652,7.3-8.5-3.148-2.66-7.3,8.506Zm1.162-34.762A3.313,3.313,0,0,0,637,813.394a3.223,3.223,0,0,0-3.306,3.251,3.278,3.278,0,0,0,3.3,3.275A3.312,3.312,0,0,0,640.279,816.663Zm7.557-8.626A3.248,3.248,0,1,0,644.6,804.8,3.261,3.261,0,0,0,647.836,808.037Zm-14.383-7.616a3.275,3.275,0,1,0-3.261,3.334A3.265,3.265,0,0,0,633.453,800.421Zm10.266,48.817-3.015,3.517c0.357,0.306.686,0.593,1.019,0.874,0.6,0.509,1.207,1.012,1.808,1.521a2.45,2.45,0,0,0,3.745-.188c0.561-.6,1.071-1.25,1.636-1.916Zm7.806,0.712a2.291,2.291,0,0,0-.345-2.988c-1.023-.918-2.093-1.784-3.182-2.706l-2.933,3.407,5.209,3.822C650.707,850.961,651.163,850.487,651.525,849.95ZM601.6,828.258a15.874,15.874,0,1,1,15.928-15.9A16,16,0,0,1,601.6,828.258Zm10.5-13.91c-0.588.419-1.168,0.849-1.766,1.255a0.383,0.383,0,0,0-.179.547,5.335,5.335,0,1,1-9.592-.859c0.034-.056.07-0.111,0.152-0.241-0.561-.537-1.121-1.088-1.7-1.612a0.506,0.506,0,0,0-.4.079,5.322,5.322,0,1,1,1.459-7.455,5.094,5.094,0,0,1,.354,5.368,0.444,0.444,0,0,0,.09.625c0.488,0.435.959,0.891,1.424,1.349a0.327,0.327,0,0,0,.477.066,5.364,5.364,0,0,1,6.193.5,0.309,0.309,0,0,0,.449.018c1.97-1.407,3.946-2.805,5.909-4.221a0.492,0.492,0,0,0,.139-0.418,13.116,13.116,0,0,0-3.94-6.947,13.962,13.962,0,0,0-23.379,7.812,13.862,13.862,0,0,0,14.914,15.924,13.854,13.854,0,0,0,12.755-13.828c0-.077-0.01-0.154-0.021-0.325Zm-16.437-2.014a3.26,3.26,0,1,0-3.288-3.243A3.27,3.27,0,0,0,595.658,812.334Zm9.478,2.437a3.262,3.262,0,1,0,3.293,3.236A3.282,3.282,0,0,0,605.136,814.771Z" transform="translate(-580 -791)"/>
</svg>
