<svg xmlns="http://www.w3.org/2000/svg" width="43" height="36" viewBox="0 0 43 36">
  <metadata><?xpacket begin="﻿" id="W5M0MpCehiHzreSzNTczkc9d"?>
<x:xmpmeta xmlns:x="adobe:ns:meta/" x:xmptk="Adobe XMP Core 5.6-c142 79.160924, 2017/07/13-01:06:39        ">
   <rdf:RDF xmlns:rdf="http://www.w3.org/1999/02/22-rdf-syntax-ns#">
      <rdf:Description rdf:about=""/>
   </rdf:RDF>
</x:xmpmeta>
                                                                                                    
                                                                                                    
                                                                                                    
                                                                                                    
                                                                                                    
                                                                                                    
                                                                                                    
                                                                                                    
                                                                                                    
                                                                                                    
                                                                                                    
                                                                                                    
                                                                                                    
                                                                                                    
                                                                                                    
                                                                                                    
                                                                                                    
                                                                                                    
                                                                                                    
                                                                                                    
                           
<?xpacket end="w"?></metadata>
<defs>
    <style>
      .cls-1 {
        fill: #555;
        fill-rule: evenodd;
      }
    </style>
  </defs>
  <path id="홈_아이콘" data-name="홈 아이콘" class="cls-1" d="M66.793,1391.52H60.761c0-.34,0-0.65,0-0.96-0.032-2.08.047-4.17-.125-6.23a6.212,6.212,0,0,0-12.383.56c-0.022,1.98-.025,3.95,0,5.92a0.6,0.6,0,0,1-.732.75c-1.74-.03-3.48-0.01-5.33-0.01v-1.05q0-6.6,0-13.21a5.239,5.239,0,0,0-.05-0.97,1.036,1.036,0,0,0-1.06-.92,1.061,1.061,0,0,0-1.177.77,3.221,3.221,0,0,0-.1.96q-0.008,7.515,0,15.01c0,1.48.373,1.85,1.874,1.85q3.586,0.015,7.171,0c1.361,0,1.79-.43,1.793-1.78,0-2.38-.006-4.76,0-7.14a3.792,3.792,0,0,1,3.7-3.91,3.707,3.707,0,0,1,3.923,3.48c0.134,2.45.081,4.92,0.1,7.38,0.012,1.67.3,1.97,1.98,1.97q3.545,0.015,7.091,0c1.38,0,1.754-.39,1.754-1.79q0-7.62,0-15.25a1.305,1.305,0,0,0-.9-1.52c-0.867-.22-1.487.37-1.489,1.41-0.008,3.48,0,6.97,0,10.46v4.22Zm-12.246-30.77c2.268,1.82,4.491,3.6,6.713,5.39q6.14,4.92,12.28,9.86c1.045,0.83,1.7.88,2.221,0.17,0.473-.64.237-1.28-0.759-2.07q-9.633-7.74-19.263-15.47c-1.018-.82-1.409-0.83-2.4-0.04q-9.793,7.86-19.582,15.72c-0.8.64-.967,1.24-0.52,1.85a1.372,1.372,0,0,0,2.062,0q7.851-6.285,15.7-12.57C52.153,1362.67,53.309,1361.74,54.547,1360.75Z" transform="translate(-33 -1358)"/>
</svg>
