<svg xmlns="http://www.w3.org/2000/svg" width="64.094" height="62.969" viewBox="0 0 64.094 62.969">
  <metadata><?xpacket begin="﻿" id="W5M0MpCehiHzreSzNTczkc9d"?>
<x:xmpmeta xmlns:x="adobe:ns:meta/" x:xmptk="Adobe XMP Core 5.6-c142 79.160924, 2017/07/13-01:06:39        ">
   <rdf:RDF xmlns:rdf="http://www.w3.org/1999/02/22-rdf-syntax-ns#">
      <rdf:Description rdf:about=""/>
   </rdf:RDF>
</x:xmpmeta>
                                                                                                    
                                                                                                    
                                                                                                    
                                                                                                    
                                                                                                    
                                                                                                    
                                                                                                    
                                                                                                    
                                                                                                    
                                                                                                    
                                                                                                    
                                                                                                    
                                                                                                    
                                                                                                    
                                                                                                    
                                                                                                    
                                                                                                    
                                                                                                    
                                                                                                    
                                                                                                    
                           
<?xpacket end="w"?></metadata>
<defs>
    <style>
      .cls-1 {
        fill: #444;
        fill-rule: evenodd;
      }
    </style>
  </defs>
  <path id="회원가입_아이콘" data-name="회원가입 아이콘" class="cls-1" d="M130.708,828.64a28.261,28.261,0,0,0-7.175-3.9c8.108-5.92,10.809-12.611,8.315-20.272a16.536,16.536,0,0,0-31.423-.121c-2.575,7.713.019,14.154,8.249,20.4-0.391.18-.752,0.361-1.125,0.515-11.378,4.71-16.562,14.575-15.533,27.376,0.07,0.87.192,1.742,1.288,1.679,1.079-.062,1.144-0.97,1.15-1.819,0.007-1.124.016-2.249,0-3.373-0.1-9.085,3.605-16.1,11.622-20.359s15.868-3.364,23.219,1.949c0.827,0.6,1.73,1.519,2.585.3C132.757,829.779,131.418,829.228,130.708,828.64Zm-14.573-4.907a14.124,14.124,0,1,1-.058-28.247A14.124,14.124,0,0,1,116.135,823.733Zm38.534,21.913H134.074a1.338,1.338,0,0,1,0-2.676h20.6A1.338,1.338,0,0,1,154.669,845.646ZM144.371,856a1.335,1.335,0,0,1-1.331-1.339V833.955a1.331,1.331,0,1,1,2.662,0v20.707A1.334,1.334,0,0,1,144.371,856Z" transform="translate(-91.906 -793.031)"/>
</svg>
