<svg xmlns="http://www.w3.org/2000/svg" xmlns:xlink="http://www.w3.org/1999/xlink" viewBox="0 0 160.84 40.01"><defs><style>.cls-1{fill:none;}.cls-2{fill:#44383b;}.cls-3{clip-path:url(#clip-path);}.cls-4{fill:#d6de27;}.cls-5{fill:#c5c537;}.cls-6{fill:#fff;}</style><clipPath id="clip-path"><rect class="cls-1" x="1.85" y="1.13" width="70.15" height="30.27"/></clipPath></defs><title>logo0</title><g id="Layer_2" data-name="Layer 2"><g id="Layer_1-2" data-name="Layer 1"><rect class="cls-2" y="15.35" width="49.63" height="16.04" rx="6.29" ry="6.29"/><g class="cls-3"><circle class="cls-4" cx="24.3" cy="21.37" r="18.64"/><circle class="cls-5" cx="24.3" cy="21.37" r="14.91"/><path class="cls-6" d="M36.69,20.54v2.1H33.3L31,32H28l-2.15-9.33H23.54L21.39,32h-3l-2.32-9.33H12.8v-2.1h2.81L14,14.09h2.56l1.55,6.45h3.53l1.53-6.45h3l1.53,6.45h3.55l1.55-6.45h2.58L33.8,20.54Zm-18.07,2.1,1.22,5.08H20l1.22-5.08Zm6.73-2.1-.6-2.72h-.14L24,20.54Zm2.86,2.1,1.22,5.1h.14l1.25-5.1Z"/></g><path class="cls-6" d="M84.29,7.63v23.2A6.7,6.7,0,0,1,81,36.68,11.81,11.81,0,0,1,77.82,38a14.72,14.72,0,0,1-8.28-.31,8.62,8.62,0,0,1-3.73-2.54,6.42,6.42,0,0,1-1.55-4.33V7.63A6.42,6.42,0,0,1,65.81,3.3,8.73,8.73,0,0,1,69.54.75,14.44,14.44,0,0,1,74.25,0a14.19,14.19,0,0,1,4.69.75,8.87,8.87,0,0,1,3.74,2.53A6.55,6.55,0,0,1,84.29,7.63ZM77.72,30V8.48c0-1.44-.29-2.4-.88-2.89a4.89,4.89,0,0,0-5.17,0c-.59.49-.88,1.45-.88,2.89V30a3.67,3.67,0,0,0,.88,2.87,4.78,4.78,0,0,0,5.17,0A3.67,3.67,0,0,0,77.72,30ZM93.38,39.4H86.82V.24h6.56v12L99,11.05v5.34l-5.59,1.23Z"/><path class="cls-6" d="M113.2,8.24a21.53,21.53,0,0,1-.87,6,23.08,23.08,0,0,1-1.94,4.86,25.74,25.74,0,0,1-2,3l-.86,1.18h-7.13l.67-.78a24.1,24.1,0,0,0,1.51-2.06,26.92,26.92,0,0,0,1.9-3.2A22.5,22.5,0,0,0,106,13.23a17.64,17.64,0,0,0,.68-4.75V5.83h-5v-5H113.2ZM132.94,39.4H103.21V25.57h29.73Zm-6.52-5V30.59H109.78v3.83ZM124.05,7.83a22.61,22.61,0,0,1-.84,6,27.48,27.48,0,0,1-1.81,5,33.94,33.94,0,0,1-1.79,3.22l-.86,1.27h-7.26a16.06,16.06,0,0,0,1-1.29c.42-.58,1.07-1.58,1.94-3A21.51,21.51,0,0,0,116.61,14a21.07,21.07,0,0,0,.88-6V5.83H114v-5h10Zm8.89,16h-6.52V.24h6.52Z"/><path class="cls-6" d="M160.84,30.51a7.33,7.33,0,0,1-2.37,5.38,7.79,7.79,0,0,1-5.67,2.32h-6.73a7.71,7.71,0,0,1-5.64-2.32,7.35,7.35,0,0,1-2.35-5.38v-11a7.35,7.35,0,0,1,2.35-5.39,7.71,7.71,0,0,1,5.64-2.32h6.73a7.79,7.79,0,0,1,5.67,2.32,7.34,7.34,0,0,1,2.37,5.39V28H144.65v1.71c.1,2.34,1,3.51,2.77,3.51h4a2.56,2.56,0,0,0,2.18-.84,4.49,4.49,0,0,0,.63-2.67h6.57ZM154.27,23V20.35q0-3.51-2.81-3.51h-4q-2.78,0-2.77,3.51V23Z"/></g></g></svg>