<svg xmlns="http://www.w3.org/2000/svg" width="220" height="90" viewBox="0 0 220 90">
  <metadata><?xpacket begin="﻿" id="W5M0MpCehiHzreSzNTczkc9d"?>
<x:xmpmeta xmlns:x="adobe:ns:meta/" x:xmptk="Adobe XMP Core 5.6-c142 79.160924, 2017/07/13-01:06:39        ">
   <rdf:RDF xmlns:rdf="http://www.w3.org/1999/02/22-rdf-syntax-ns#">
      <rdf:Description rdf:about=""/>
   </rdf:RDF>
</x:xmpmeta>
                                                                                                    
                                                                                                    
                                                                                                    
                                                                                                    
                                                                                                    
                                                                                                    
                                                                                                    
                                                                                                    
                                                                                                    
                                                                                                    
                                                                                                    
                                                                                                    
                                                                                                    
                                                                                                    
                                                                                                    
                                                                                                    
                                                                                                    
                                                                                                    
                                                                                                    
                                                                                                    
                           
<?xpacket end="w"?></metadata>
<defs>
    <style>
      .cls-1 {
        fill: #555;
        fill-rule: evenodd;
      }
    </style>
  </defs>
  <path id="아낌이_텍스트" data-name="아낌이 텍스트" class="cls-1" d="M517.616,422.422v53.01a15.354,15.354,0,0,1-7.433,13.369,27.641,27.641,0,0,1-7.293,3.028,33.595,33.595,0,0,1-18.86-.7,19.486,19.486,0,0,1-8.5-5.823,14.616,14.616,0,0,1-3.53-9.875v-53.01a14.621,14.621,0,0,1,3.53-9.876,19.492,19.492,0,0,1,8.5-5.822A32.528,32.528,0,0,1,494.76,405a32.139,32.139,0,0,1,10.685,1.724,20.028,20.028,0,0,1,8.5,5.776A14.849,14.849,0,0,1,517.616,422.422Zm-14.958,51.054v-49.1q0-4.936-2-6.615t-5.9-1.676q-3.9,0-5.9,1.676t-2,6.615v49.1q0,4.845,2,6.568t5.9,1.723q3.9,0,5.9-1.723T502.658,473.476ZM538.334,495H523.376V405.559h14.958v27.483l12.728-2.794v12.2l-12.728,2.8V495Zm45.152-71.177a49.2,49.2,0,0,1-2,13.835,52.407,52.407,0,0,1-4.413,11.087,57.241,57.241,0,0,1-4.46,6.847l-1.951,2.7H554.407q0.557-.651,1.533-1.77t3.437-4.7a61.3,61.3,0,0,0,4.32-7.313,52.223,52.223,0,0,0,3.391-9.27,40.61,40.61,0,0,0,1.533-10.854v-6.055H557.194V406.957h26.292v16.862ZM628.453,495H560.724V463.414h67.729V495ZM613.588,483.63v-8.757H575.682v8.757h37.906ZM608.2,422.888a51.978,51.978,0,0,1-1.9,13.7,63.65,63.65,0,0,1-4.134,11.459,79.435,79.435,0,0,1-4.088,7.36l-1.951,2.888H579.584a37.025,37.025,0,0,0,2.276-2.935q1.44-2,4.414-6.848a48.406,48.406,0,0,0,4.97-11.6,47.918,47.918,0,0,0,2-13.649v-4.937h-7.9V406.957H608.2v15.931Zm20.254,36.427H613.588V405.559h14.865v53.756ZM692,474.687a16.764,16.764,0,0,1-5.389,12.3A17.749,17.749,0,0,1,673.7,492.3h-15.33a17.593,17.593,0,0,1-12.867-5.311,16.829,16.829,0,0,1-5.343-12.3V449.626a16.83,16.83,0,0,1,5.343-12.3,17.593,17.593,0,0,1,12.867-5.311H673.7a17.749,17.749,0,0,1,12.914,5.311,16.765,16.765,0,0,1,5.389,12.3v19.285H655.117v3.913q0.369,8.013,6.317,8.011h9.2q3.53,0,4.971-1.909t1.44-6.1H692v1.863Zm-14.958-17.143v-6.055q0-8.011-6.411-8.012h-9.2q-6.319,0-6.317,8.012v6.055h21.926Z" transform="translate(-472 -405)"/>
</svg>
