<svg xmlns="http://www.w3.org/2000/svg" width="38" height="34" viewBox="0 0 38 34">
  <metadata><?xpacket begin="﻿" id="W5M0MpCehiHzreSzNTczkc9d"?>
<x:xmpmeta xmlns:x="adobe:ns:meta/" x:xmptk="Adobe XMP Core 5.6-c142 79.160924, 2017/07/13-01:06:39        ">
   <rdf:RDF xmlns:rdf="http://www.w3.org/1999/02/22-rdf-syntax-ns#">
      <rdf:Description rdf:about=""/>
   </rdf:RDF>
</x:xmpmeta>
                                                                                                    
                                                                                                    
                                                                                                    
                                                                                                    
                                                                                                    
                                                                                                    
                                                                                                    
                                                                                                    
                                                                                                    
                                                                                                    
                                                                                                    
                                                                                                    
                                                                                                    
                                                                                                    
                                                                                                    
                                                                                                    
                                                                                                    
                                                                                                    
                                                                                                    
                                                                                                    
                           
<?xpacket end="w"?></metadata>
<defs>
    <style>
      .cls-1 {
        fill: #555;
        fill-rule: evenodd;
      }
    </style>
  </defs>
  <path id="뉴스_아이콘" data-name="뉴스 아이콘" class="cls-1" d="M443.1,1300.98H427.058a2.873,2.873,0,0,1-2.846-1.94,3.176,3.176,0,0,1-.2-1.16q-0.017-10.59-.008-21.18c0-1.6,0-3.2,0-4.79a0.613,0.613,0,0,1,.364-0.6,0.471,0.471,0,0,1,.581.1,1.444,1.444,0,0,1,.221.44,0.8,0.8,0,0,1,.008.26v12.3q0,6.66,0,13.31a2.167,2.167,0,0,0,.521,1.54,1.77,1.77,0,0,0,2.531.01,1.924,1.924,0,0,0,.532-1.37q0-15.015.007-30.04a2.363,2.363,0,0,1,.012-0.34,0.538,0.538,0,0,1,.476-0.49c0.1-.01.2-0.01,0.3-0.01H459.94c0.456,0,.912-0.01,1.368-0.02a0.653,0.653,0,0,1,.691.68q0,14.58,0,29.14c0,0.68-.016,1.36-0.057,2.03a1.171,1.171,0,0,1-.21.63,4.279,4.279,0,0,1-1.533,1.31,2.243,2.243,0,0,1-.881.2q-8.107.015-16.217,0.01v-0.02Zm-13.684-1.18h26.536c0.853,0,1.706-.01,2.558-0.05a3.507,3.507,0,0,0,1.317-.19,1.869,1.869,0,0,0,.981-1.31c0.013-.18.019-0.36,0.019-0.54q0-7.32,0-14.63,0-6.72.007-13.42v-1.42H429.92v4.64q0,12.495,0,24.99a2.425,2.425,0,0,1-.06.66C429.738,1298.95,429.575,1299.35,429.415,1299.8Zm-1.867-8.73c0,2.2,0,4.4-.008,6.6a1.584,1.584,0,0,1-.176.7,0.457,0.457,0,0,1-.592.11,0.427,0.427,0,0,1-.366-0.4c-0.011-.11-0.017-0.22-0.017-0.33v-11.97q0-7.545,0-15.09c0-.23-0.022-0.46-0.031-0.69a0.557,0.557,0,0,1,.605-0.61,0.55,0.55,0,0,1,.594.59q-0.007,3.375-.012,6.76c0,2.04,0,4.09,0,6.13v8.2h0Zm4.785-7.09c0-1.77,0-3.55,0-5.33a0.6,0.6,0,0,1,.3-0.63,0.829,0.829,0,0,1,.31-0.07q4.713-.015,9.425-0.01a0.6,0.6,0,0,1,.624.65c0,1.76.007,3.51,0.007,5.26q0,2.745-.006,5.49a0.615,0.615,0,0,1-.706.72c-3.083,0-6.166-.01-9.248,0a0.646,0.646,0,0,1-.713-0.72c0.015-1.78.006-3.57,0.006-5.36h0Zm1.147,0.01c0,1.52.006,3.04-.006,4.56a0.267,0.267,0,0,0,.33.33q3.852-.015,7.7,0a0.257,0.257,0,0,0,.315-0.32q-0.009-4.56,0-9.12a0.26,0.26,0,0,0-.314-0.32q-3.852.015-7.7,0a0.269,0.269,0,0,0-.332.33C433.486,1280.96,433.48,1282.48,433.48,1283.99Zm11.929-13.34h12.139a1.358,1.358,0,0,1,.451.03,0.583,0.583,0,0,1,.4.75,0.533,0.533,0,0,1-.612.41q-12.376,0-24.755.02a1.138,1.138,0,0,1-.32-0.05,0.568,0.568,0,0,1-.366-0.7,0.592,0.592,0,0,1,.566-0.46c0.227-.01.456,0,0.684,0h11.809Zm-0.047,4.83H433.326a4.687,4.687,0,0,1-.531-0.02,0.507,0.507,0,0,1-.455-0.5,0.534,0.534,0,0,1,.354-0.61,1.355,1.355,0,0,1,.349-0.04q10.642-.015,21.285-0.01c1.156,0,2.313,0,3.469.01a0.574,0.574,0,0,1,.594.78,0.477,0.477,0,0,1-.437.37,4.264,4.264,0,0,1-.5.02H445.362Zm0.022,18.22H433.118a2.141,2.141,0,0,1-.253-0.01,0.549,0.549,0,0,1-.528-0.6,0.517,0.517,0,0,1,.534-0.56c0.76-.01,1.52,0,2.28,0,0.21,0,.421-0.01.631-0.01H457.7a0.618,0.618,0,0,1,.663.31,0.583,0.583,0,0,1-.484.86,2.6,2.6,0,0,1-.279.01H445.384Zm6.538,3.65h-5.878a0.593,0.593,0,0,1-.617-0.78,0.582,0.582,0,0,1,.516-0.42,0.388,0.388,0,0,1,.152-0.01h11.63a0.607,0.607,0,0,1,.643.86,0.6,0.6,0,0,1-.618.35h-5.828Zm0-19.41c1.959,0,3.918.01,5.876,0a0.589,0.589,0,0,1,.565.84,1.056,1.056,0,0,1-.389.32,0.615,0.615,0,0,1-.274.02q-5.789.015-11.576,0.01a0.592,0.592,0,0,1-.7-0.41,0.577,0.577,0,0,1,.593-0.77C447.986,1277.94,449.954,1277.94,451.921,1277.94Zm0,12.12H446a0.544,0.544,0,0,1-.555-0.37,0.517,0.517,0,0,1,.141-0.65,1.017,1.017,0,0,1,.537-0.16c1.925-.01,3.85,0,5.775,0,1.942,0,3.884,0,5.826-.01a0.617,0.617,0,0,1,.639.32,0.6,0.6,0,0,1-.56.87C455.842,1290.05,453.883,1290.06,451.924,1290.06Zm-0.007-7.3c-1.967,0-3.935,0-5.9.01a0.592,0.592,0,0,1-.591-0.77,0.523,0.523,0,0,1,.551-0.4c0.329-.01.658,0,0.988,0,3.6,0,7.194-.01,10.791,0a0.582,0.582,0,0,1,.65.74,0.524,0.524,0,0,1-.534.42c-0.641.01-1.283,0-1.925,0h-4.028Zm0,2.48c1.959,0,3.918.01,5.877-.01a0.583,0.583,0,0,1,.567.83,1.15,1.15,0,0,1-.338.32,0.417,0.417,0,0,1-.2.02q-5.914.015-11.829,0a0.555,0.555,0,0,1-.573-0.75,0.529,0.529,0,0,1,.49-0.41c0.27-.01.541,0,0.811,0h5.192Z" transform="translate(-424 -1267)"/>
</svg>
