<svg xmlns="http://www.w3.org/2000/svg" width="27" height="20" viewBox="0 0 27 20">
  <metadata><?xpacket begin="﻿" id="W5M0MpCehiHzreSzNTczkc9d"?>
<x:xmpmeta xmlns:x="adobe:ns:meta/" x:xmptk="Adobe XMP Core 5.6-c142 79.160924, 2017/07/13-01:06:39        ">
   <rdf:RDF xmlns:rdf="http://www.w3.org/1999/02/22-rdf-syntax-ns#">
      <rdf:Description rdf:about=""/>
   </rdf:RDF>
</x:xmpmeta>
                                                                                                    
                                                                                                    
                                                                                                    
                                                                                                    
                                                                                                    
                                                                                                    
                                                                                                    
                                                                                                    
                                                                                                    
                                                                                                    
                                                                                                    
                                                                                                    
                                                                                                    
                                                                                                    
                                                                                                    
                                                                                                    
                                                                                                    
                                                                                                    
                                                                                                    
                                                                                                    
                           
<?xpacket end="w"?></metadata>
<defs>
    <style>
      .cls-1 {
        fill: #555;
        fill-rule: evenodd;
      }
    </style>
  </defs>
  <path id="따옴표_위_copy" data-name="따옴표 위 copy" class="cls-1" d="M684.751,613.446q-3.143,0-6.265,0c-1.58,0-2.046-.471-2.048-2.067q0-3.692,0-7.383c0-1.482.485-1.986,1.938-1.988q3.891,0,7.78,0c1.316,0,1.834.489,1.822,1.8-0.029,3.268.145,6.559-.195,9.8-0.486,4.638-4.786,8.253-9.481,8.383a1.586,1.586,0,0,1-1.848-1.426c-0.029-.907.6-1.468,1.729-1.535C681.5,618.831,684.372,616.424,684.751,613.446Zm-15.412,0c-2.2,0-4.289,0-6.374,0-1.526,0-1.963-.428-1.965-1.917q0-3.876,0-7.752a1.485,1.485,0,0,1,1.738-1.761q3.981-.018,7.962-0.006c1.276,0,1.773.47,1.779,1.733,0.015,2.957.064,5.916-.028,8.871A9.994,9.994,0,0,1,662.718,622,1.528,1.528,0,0,1,661,620.543a1.451,1.451,0,0,1,1.622-1.513,7.1,7.1,0,0,0,6.481-4.694C669.2,614.083,669.243,613.817,669.339,613.445Z" transform="translate(-661 -602)"/>
</svg>
