<svg xmlns="http://www.w3.org/2000/svg" width="27" height="20" viewBox="0 0 27 20">
  <metadata><?xpacket begin="﻿" id="W5M0MpCehiHzreSzNTczkc9d"?>
<x:xmpmeta xmlns:x="adobe:ns:meta/" x:xmptk="Adobe XMP Core 5.6-c142 79.160924, 2017/07/13-01:06:39        ">
   <rdf:RDF xmlns:rdf="http://www.w3.org/1999/02/22-rdf-syntax-ns#">
      <rdf:Description rdf:about=""/>
   </rdf:RDF>
</x:xmpmeta>
                                                                                                    
                                                                                                    
                                                                                                    
                                                                                                    
                                                                                                    
                                                                                                    
                                                                                                    
                                                                                                    
                                                                                                    
                                                                                                    
                                                                                                    
                                                                                                    
                                                                                                    
                                                                                                    
                                                                                                    
                                                                                                    
                                                                                                    
                                                                                                    
                                                                                                    
                                                                                                    
                           
<?xpacket end="w"?></metadata>
<defs>
    <style>
      .cls-1 {
        fill: #555;
        fill-rule: evenodd;
      }
    </style>
  </defs>
  <path id="따옴표_위" data-name="따옴표 위" class="cls-1" d="M457.249,276.554q3.142,0,6.265,0c1.58,0,2.046.471,2.048,2.067q0,3.692,0,7.383c0,1.482-.485,1.986-1.938,1.988q-3.891,0-7.78,0c-1.316,0-1.834-.489-1.822-1.8,0.029-3.268-.145-6.559.195-9.8,0.486-4.638,4.786-8.253,9.481-8.383a1.586,1.586,0,0,1,1.848,1.426c0.029,0.907-.6,1.468-1.729,1.535C460.505,271.169,457.628,273.576,457.249,276.554Zm15.412,0c2.2,0,4.289,0,6.374,0,1.526,0,1.963.428,1.965,1.917q0,3.876,0,7.752a1.485,1.485,0,0,1-1.738,1.761q-3.981.018-7.962,0.006c-1.276,0-1.773-.47-1.779-1.733-0.015-2.957-.064-5.916.028-8.871A9.994,9.994,0,0,1,479.282,268,1.528,1.528,0,0,1,481,269.457a1.451,1.451,0,0,1-1.622,1.513,7.1,7.1,0,0,0-6.481,4.694C472.805,275.917,472.757,276.183,472.661,276.555Z" transform="translate(-454 -268)"/>
</svg>
