<svg xmlns="http://www.w3.org/2000/svg" width="54.937" height="64.969" viewBox="0 0 54.937 64.969">
  <metadata><?xpacket begin="﻿" id="W5M0MpCehiHzreSzNTczkc9d"?>
<x:xmpmeta xmlns:x="adobe:ns:meta/" x:xmptk="Adobe XMP Core 5.6-c142 79.160924, 2017/07/13-01:06:39        ">
   <rdf:RDF xmlns:rdf="http://www.w3.org/1999/02/22-rdf-syntax-ns#">
      <rdf:Description rdf:about=""/>
   </rdf:RDF>
</x:xmpmeta>
                                                                                                    
                                                                                                    
                                                                                                    
                                                                                                    
                                                                                                    
                                                                                                    
                                                                                                    
                                                                                                    
                                                                                                    
                                                                                                    
                                                                                                    
                                                                                                    
                                                                                                    
                                                                                                    
                                                                                                    
                                                                                                    
                                                                                                    
                                                                                                    
                                                                                                    
                                                                                                    
                           
<?xpacket end="w"?></metadata>
<defs>
    <style>
      .cls-1 {
        fill: #444;
        fill-rule: evenodd;
      }
    </style>
  </defs>
  <path id="영수증_아이콘" data-name="영수증 아이콘" class="cls-1" d="M296.561,803.525c-0.172,0-.344,0-0.515,0-2.282.013-4.564,0.022-6.845,0.043-0.567.006-.868,0.4-0.65,0.828a0.757,0.757,0,0,0,.792.33h3.544v0c1.22,0,2.44,0,3.66,0A0.605,0.605,0,1,0,296.561,803.525Zm-13.068,28.56a0.052,0.052,0,0,0-.089,0,0.7,0.7,0,0,0-.543-0.087q-8.783-.006-17.565,0a0.654,0.654,0,0,0-.63.158,0.118,0.118,0,0,0-.042.044,0.453,0.453,0,0,0-.042.662l-0.011-.006c0.052,0.046-.03.3,0.174,0.113a0.123,0.123,0,0,0,.063-0.01,0.281,0.281,0,0,0,.35.208c0.229,0,.457,0,0.686,0h17.034a0.728,0.728,0,0,0,.825-0.337A0.521,0.521,0,0,0,283.493,832.085Zm-0.357.716a0.771,0.771,0,0,0,.11-0.08A0.771,0.771,0,0,1,283.136,832.8Zm0.176-.142a1.069,1.069,0,0,0,.186-0.283,1.076,1.076,0,0,1-.057-0.144,1.076,1.076,0,0,0,.057.144A1.069,1.069,0,0,1,283.312,832.659Zm0.541-28.825a8.528,8.528,0,0,0-2.176-.088,0.749,0.749,0,0,0-.492.027l-2.718-.032a0.676,0.676,0,0,0,.03.09,0.346,0.346,0,0,0,.073.117,0.187,0.187,0,0,0,.09.051,0.187,0.187,0,0,1-.09-0.051,0.346,0.346,0,0,1-.073-0.117,0.676,0.676,0,0,1-.03-0.09l-0.25.017-0.2-.012-0.362,0-0.887.011-0.256,0-1.013,0h0a0.773,0.773,0,0,0-.489.022l-0.426-.021h0a3.076,3.076,0,0,1-1.271-.012l-0.114.014,0.117,0.091h0l-0.117-.091q-3.771-.009-7.541-0.021c-0.427,0-.8.094-0.8,0.591s0.384,0.574.8,0.572c1.524-.008,3.048,0,4.571,0q6.572,0,13.142,0a0.69,0.69,0,0,0,.765-0.361A0.506,0.506,0,0,0,283.853,803.834Zm-8.812.162v0Zm-1.777-.048-0.015.033h0Zm1.1,0.81a0.623,0.623,0,0,0,.33-0.039A0.623,0.623,0,0,1,274.361,804.758ZM312.9,804.3a3.723,3.723,0,0,1,0-1.372h0q0-.568,0-1.137,0-2.46-.008-4.921a5.427,5.427,0,0,0-1.933-4.417l-0.022-.014a1.59,1.59,0,0,0-.543-0.419l-0.1-.062a4.716,4.716,0,0,0-2.713-.9c-1.315-.03-2.632-0.013-3.948-0.013q-19.71,0-39.422,0a6.151,6.151,0,0,0-3.738,1.144l0.03,0.029-0.03-.029a1.119,1.119,0,0,0-.508.4,0.7,0.7,0,0,0,.067.076h0a0.476,0.476,0,0,1-.019.112,0.483,0.483,0,0,1-.043.1,0.627,0.627,0,0,1-.06.083,1.909,1.909,0,0,0-.345.387,0.692,0.692,0,0,1,.254.1,0.692,0.692,0,0,0-.254-0.1,2.717,2.717,0,0,0-.609.832,2.717,2.717,0,0,1,.609-0.832,1.909,1.909,0,0,1,.345-0.387,0.627,0.627,0,0,0,.06-0.083,0.483,0.483,0,0,0,.043-0.1,0.476,0.476,0,0,0,.019-0.112,0.7,0.7,0,0,1-.067-0.076,5.456,5.456,0,0,0-1.99,4.387q-0.006,5.955,0,11.909,0,6.382.012,12.764,0,0.407,0,.816,0,2.1,0,4.2h0c0,0.27,0,.54,0,0.809,0,0.095-.014.19-0.014,0.285q0,13.408,0,26.819c0,0.132.015,0.264,0.023,0.4,0,0.23,0,.46,0,0.689a0.109,0.109,0,0,0,0,.109c0.014,0.087-.111.348,0.131,0.172a1.181,1.181,0,0,0,.541-0.611,1.318,1.318,0,0,0,.617-0.5l0.019-.028,0.085-.077a0.068,0.068,0,0,0,.054-0.035h0l0.8-.777c0.865-.812,1.727-1.627,2.6-2.431,0.135-.124.222-0.385,0.5-0.262,0.715,0.8,1.542,1.487,2.326,2.217l0.023,0.024h0a12.784,12.784,0,0,0,1.313,1.289,1.811,1.811,0,0,1,.194.208c0.266,0.4.493,0.364,0.824,0.025,1-1.017,2.028-2,3.045-2.992h0a0.065,0.065,0,0,0,.053-0.065,0.609,0.609,0,0,0,.044-0.044,0.061,0.061,0,0,0,.06-0.047h0a2.653,2.653,0,0,0,.611-0.613,0.335,0.335,0,0,1,.305,0,0.4,0.4,0,0,0,.232.237,0.006,0.006,0,0,1,0,0l0.112,0.111h0l0.276,0.275,0.025,0.026,0.169,0.157v0l0.118,0.123,0.1,0.1,0.319,0.315h0a0.084,0.084,0,0,0,.065.057l0.231,0.247h0l0.04,0.033c0.755,0.74,1.513,1.476,2.262,2.222,0.171,0.171.282,0.238,0.491,0.025,0.783-.8,1.589-1.576,2.386-2.361a0.389,0.389,0,0,0-.126-0.046,0.389,0.389,0,0,1,.126.046l0.041-.039h0c0.049-.053.1-0.105,0.148-0.157l0.157-.137h0l0.039-.036,0.146-.16a0.423,0.423,0,0,0,.235-0.231l0.159-.145,0.038-.036,0.256-.267,0.552-.423,0.374,0.345h0a0.065,0.065,0,0,0,.057.044l0.066-.017h0l-0.066.017a0.253,0.253,0,0,0,.049.049,0.063,0.063,0,0,0,.045.061l0.2,0.186,0.035,0.029a0.112,0.112,0,0,0,.073.074l0.028,0.038,0.166,0.149h0l0.15,0.166a0.07,0.07,0,0,0,.047.037,0.109,0.109,0,0,0,.063.063h0a0.062,0.062,0,0,0,.042.049l0.43,0.418h0l0.027,0.023c0.728,0.719,1.471,1.425,2.179,2.163,0.285,0.3.439,0.245,0.709-.025,1.221-1.218,2.474-2.406,3.7-3.619,0.192-.19.335-0.271,0.541-0.065l0.262,0.27h0a0.084,0.084,0,0,0,.043.046l0.2,0.183h0l0.039,0.034a0.118,0.118,0,0,0,.074.072h0a0.061,0.061,0,0,0,.04.041,0.123,0.123,0,0,0,.071.072h0l0.037,0.037h0a21.976,21.976,0,0,0,1.775,1.718q0.666,0.663,1.333,1.326c0.1,0.1.195,0.284,0.36,0.092a5.861,5.861,0,0,0,.947-1.043h0l0.114-.114,0.11-.111,0.12-.111h0v0l0.684-.688a2.6,2.6,0,0,0,.849-0.739l0.014-.018h0l0.1-.1,0.015-.008h0l0.216-.221a0.047,0.047,0,0,0,.006-0.009h0l0.107-.108,0.014-.007c0.111-.106.22-0.213,0.33-0.32l0.014-.022,0.1-.1,0.016-.008h0l0.168-.171h0l0.118-.117,0.11-.064h0c1.264,1.237,2.522,2.48,3.8,3.707a6.21,6.21,0,0,0,1.236,1.126c0.14-.007.066-0.114,0.066-0.166q0-17.1-.007-34.2c0-4.735,0-9.47-.009-14.206,0-.435.1-0.583,0.565-0.575,1.678,0.031,3.356.016,5.035,0.01,1.37,0,2.74-.024,4.109-0.037A17.031,17.031,0,0,0,312.9,804.3ZM258.2,821.656q0-12.306,0-24.611,0,12.3,0,24.611h0Zm1.127,5.9h0c0.007,0.3.019,0.608,0.019,0.912C259.344,828.163,259.332,827.859,259.325,827.555Zm48.213-36.275c0.059-.083.117-0.1,0.175-0.061-0.058-.042-0.116-0.022-0.175.061l-43.956,0Zm-0.613,1.142a6.177,6.177,0,0,0-1.217.233,0.711,0.711,0,0,0-.393-0.344,0.711,0.711,0,0,1,.393.344A6.177,6.177,0,0,1,306.925,792.422Zm-3.238.213-0.012,0h0Zm-40.224-1.349a0.087,0.087,0,0,1,.058-0.059,0.058,0.058,0,0,1,.046.03,0.058,0.058,0,0,0-.046-0.03,0.087,0.087,0,0,0-.058.059h0Zm-0.13,1.175a4.173,4.173,0,0,0-1.151.325A4.173,4.173,0,0,1,263.333,792.461Zm-1.1-1a0.984,0.984,0,0,0-.489.288,0.122,0.122,0,0,0,0,.033,0.122,0.122,0,0,1,0-.033A0.984,0.984,0,0,1,262.237,791.46Zm-1.379,1.571a0.994,0.994,0,0,1-.268-0.253A0.994,0.994,0,0,0,260.858,793.031Zm0.322,0.2a0.343,0.343,0,0,0,.386-0.2,0.343,0.343,0,0,1-.386.2,0.693,0.693,0,0,1-.423.458A0.693,0.693,0,0,0,261.18,793.23Zm0.2-.847a0.4,0.4,0,0,1,.063-0.038A0.4,0.4,0,0,0,261.379,792.383Zm0.536-.251a0.014,0.014,0,0,0,0-.007A0.014,0.014,0,0,1,261.915,792.132Zm-0.783-.124a0.2,0.2,0,0,0-.073.08h0A0.2,0.2,0,0,1,261.132,792.008Zm-1.455,62.2a0.191,0.191,0,0,0,.01-0.034,0.482,0.482,0,0,1-.041-0.128,0.482,0.482,0,0,0,.041.128A0.191,0.191,0,0,1,259.677,854.209Zm1.824-3.478a0.986,0.986,0,0,0,.012-0.1h0A0.986,0.986,0,0,1,261.5,850.731Zm5.5,3.726a0.843,0.843,0,0,1,.138.28A0.843,0.843,0,0,0,267,854.457Zm4.092-2.575a0.049,0.049,0,0,1,.036-0.039A0.049,0.049,0,0,0,271.092,851.882Zm1.652-2.164c0,0.052,0,.108,0,0.158C272.745,849.826,272.747,849.77,272.744,849.718Zm6.661,2.535c0.03,0,.065-0.006.1-0.009C279.47,852.247,279.435,852.248,279.4,852.253Zm0.382-1.821a0.247,0.247,0,0,0,.028-0.086A0.247,0.247,0,0,1,279.787,850.432Zm0.769,0.065a0.081,0.081,0,0,0,.03-0.108A0.081,0.081,0,0,1,280.556,850.5Zm0.9,1.117a0.115,0.115,0,0,1,.05.044A0.115,0.115,0,0,0,281.453,851.614Zm0.109,0.231a0.04,0.04,0,0,1,.025,0A0.04,0.04,0,0,0,281.562,851.845Zm0.07-1.561h0c0.089,0.044.195,0.073,0.278,0.123C281.827,850.357,281.721,850.328,281.632,850.284Zm3.577,3.318h0Zm4.46-2.27c0.053,0,.111,0,0.162,0C289.78,851.329,289.722,851.333,289.669,851.332Zm0.93-.911a0.388,0.388,0,0,1,.147.231A0.388,0.388,0,0,0,290.6,850.421Zm3.225,4.424a0.942,0.942,0,0,0,.476-0.3A0.942,0.942,0,0,1,293.824,854.845Zm0.243-1.658c0.193-.188.4-0.363,0.593-0.55C294.467,852.824,294.26,853,294.067,853.187Zm1.2-1.435h0Zm0.116-.116h0Zm0.345-.339c0.055,0,.115.008,0.167,0.008C295.84,851.305,295.78,851.3,295.725,851.3Zm0.367,1.394h0a1.135,1.135,0,0,0,.422-0.309A1.135,1.135,0,0,1,296.092,852.691Zm0.2-1.973h0Zm0.352-.334h0Zm0.193,1.785a0.112,0.112,0,0,1,.111-0.109A0.113,0.113,0,0,0,296.836,852.169Zm0.232-.173a0.052,0.052,0,0,1,.024-0.043A0.052,0.052,0,0,0,297.068,852Zm1.042-.95a0.117,0.117,0,0,1,.14.032A0.117,0.117,0,0,0,298.11,851.046Zm3.338,1.352a0.686,0.686,0,0,0,.132-0.1h0A0.769,0.769,0,0,1,301.448,852.4Zm0.706-26.447h0l0.353-.007h0Zm0.347-4.758q0-6.636,0-13.272,0,6.636,0,13.272h0Zm0.352-25a0.818,0.818,0,0,1-.325-0.336,0.818,0.818,0,0,0,.325.336h0ZM302.5,827.009h0a0.2,0.2,0,0,0-.05.1A0.2,0.2,0,0,1,302.5,827.009Zm0.12,28.192c-0.044-.017-0.092-0.027-0.138-0.041,0.046,0.014.094,0.024,0.138,0.041h0Zm0.24-29.314a1.346,1.346,0,0,0-.013-0.283A1.346,1.346,0,0,1,302.859,825.887Zm0.171-20.641a0.35,0.35,0,0,1-.09-0.3A0.35,0.35,0,0,0,303.03,805.246Zm0.022,1.487a0.2,0.2,0,0,0-.087.147A0.2,0.2,0,0,1,303.052,806.733Zm-0.089,15.09a0.044,0.044,0,0,0,.046.039A0.044,0.044,0,0,1,302.963,821.823Zm0.1-14.528a0.353,0.353,0,0,0-.1-0.274h0A0.353,0.353,0,0,1,303.062,807.3Zm-0.227-14.116c0.006,0.055.012,0.109,0.017,0.163,0-.054-0.011-0.108-0.017-0.163a5.048,5.048,0,0,0-1.25,3.443q-0.007,12.227,0,24.451c0,0.188.025,0.376,0.037,0.564-0.063,1.146-.05,2.291-0.006,3.436-0.011.208-.031,0.415-0.031,0.622q0,12.873,0,25.747c0,0.265.013,0.531,0.02,0.8a0.341,0.341,0,0,0,.221-0.181,0.341,0.341,0,0,1-.221.181,0.046,0.046,0,0,0-.023.065c-0.082-.04-0.164-0.079-0.247-0.117a0.078,0.078,0,0,0-.039-0.041h0l-0.539-.531a0.064,0.064,0,0,0-.045-0.041h0a0.116,0.116,0,0,0-.051-0.054,0.067,0.067,0,0,0-.072-0.072h0a0.1,0.1,0,0,0-.068-0.058l-0.024-.028h0c-0.067-.069-0.135-0.137-0.2-0.205l-0.026-.028h0a12.452,12.452,0,0,0-1.885-1.743c-0.161-.191-0.33-0.339-0.575-0.118-0.111-.031-0.129.066-0.174,0.126l-0.036.037h0l-0.158.159-0.242.239-0.084.084c0,0.036,0,.078-0.01.112,0.006-.034.006-0.076,0.01-0.112-0.058.053-.117,0.107-0.174,0.161a0.151,0.151,0,0,0-.042.045h0l-0.263.264h0c-0.033.039-.067,0.077-0.1,0.116l-0.252.217h0l-0.105.116v0h0l-0.155.153a0.168,0.168,0,0,0-.052.04h0l-0.249.266h0a0.766,0.766,0,0,0-.354.344h0l-0.11.11v0h0a0.088,0.088,0,0,0-.084.059h0c-0.286.269-.577,0.534-0.858,0.809-0.545.531-.542,0.534-1.128,0.03l-0.025-.025h0c-0.881-.865-1.73-1.765-2.676-2.563a0.1,0.1,0,0,0-.122-0.1,3.374,3.374,0,0,1-.557-0.576c-0.194-.3-0.4-0.543-0.716-0.121l0.468,0.578h0a0.37,0.37,0,0,1-.217.22,0.37,0.37,0,0,0,.217-0.22l-0.468-.578a7.659,7.659,0,0,1-.92.9l-1.24,1.284-0.136.094,0.136-.094a0.105,0.105,0,0,0-.14.094l-1.343,1.3c-0.285.352-.536,0.287-0.8-0.041a4.805,4.805,0,0,0-.509-0.51c-0.837-.768-1.584-1.632-2.479-2.34a1.051,1.051,0,0,1-.563-0.564h0c-0.174-.141-0.233-0.583-0.6-0.229a0.335,0.335,0,0,0-.218.319,4.486,4.486,0,0,0-.963.85l-0.036.042h0a0.13,0.13,0,0,0-.075.072l-0.041.031h0l-0.195.187a0.094,0.094,0,0,0-.048.04h0l-0.261.274h0q-0.171.173-.344,0.343h0l-0.113.11a0.023,0.023,0,0,1,0,0h0a19.087,19.087,0,0,0-1.7,1.632c-0.228.181-.326-0.039-0.455-0.15a13.313,13.313,0,0,0-1.366-1.245h0a0.1,0.1,0,0,0-.1-0.032,1.308,1.308,0,0,0-.445-0.414,0.145,0.145,0,0,0-.051-0.093c0.036-.1-0.024-0.136-0.1-0.168h0l-0.089-.088a1.007,1.007,0,0,1-.336-0.074,1.007,1.007,0,0,0,.336.074l-0.853-.847a0.788,0.788,0,0,0,.294.642,0.788,0.788,0,0,1-.294-0.642l-0.041-.035h0l-0.279-.263c-0.179-.185-0.369-0.362-0.535-0.56s-0.29-.15-0.452.015c-0.564.574-1.14,1.137-1.713,1.7a0.227,0.227,0,0,0-.041.041h0l-0.149.152h0l-1.025.939h0l-0.336.45a0.867,0.867,0,0,1-.013.127,0.867,0.867,0,0,0,.013-0.127,0.489,0.489,0,0,0-.207.056,1.858,1.858,0,0,1-.643.595,1.931,1.931,0,0,1-.724-0.554,0.006,0.006,0,0,1,0,0h0l-0.129-.124-0.091-.088a0.381,0.381,0,0,1-.059,0,0.381,0.381,0,0,0,.059,0l-0.239-.235h0l-0.171-.167-0.02-.016h0l-0.42-.425h0a0.066,0.066,0,0,0-.051-0.047h0a0.148,0.148,0,0,0-.079-0.071l-0.022-.027h0l-0.211-.206-0.023-.021h0l-0.221-.2-0.009-.008h0c-0.591-.579-1.188-1.152-1.767-1.743a0.3,0.3,0,0,0-.5.018c-0.3.309-.616,0.607-0.925,0.909l-0.022.021h0l-0.2.2a0.062,0.062,0,0,0-.044.046h0l-0.021.027-0.236.233-0.158.136a0.072,0.072,0,0,0-.048.052,0.229,0.229,0,0,0,.021.023,0.229,0.229,0,0,1-.021-0.023l-1.715,1.566c-0.018-.055-0.036-0.111-0.055-0.166q0-.624.007-1.248c0.008-.208.023-0.417,0.023-0.625q0-7.1,0-14.2,0-4.333-.014-8.666,0-.58,0-1.159v-1.355q0-2.118,0-4.235h0c0.005-.19.016-0.379,0.016-0.569,0-7.559.017-15.118-.016-22.677a5.046,5.046,0,0,1,1.071-3.434l0,0A8.373,8.373,0,0,1,262.1,793h0a6.459,6.459,0,0,1,2.587-.424q18.622,0.006,37.244,0c0.419,0,.837-0.02,1.256-0.031C303.279,792.874,302.853,792.915,302.835,793.179Zm-1.014,32q0,8.791-.006,17.582,0-8.792.006-17.582h0Zm9.521-20.192a1.432,1.432,0,0,1-.034.223,0.2,0.2,0,0,1,0,.107l-8,.024-0.2-.034-0.012-8.993a6.007,6.007,0,0,1,.715-1.965l0.032-.044h0l0.279-.369a1.537,1.537,0,0,0,.465-0.447h0a0.863,0.863,0,0,1,.846-0.772,0.863,0.863,0,0,0-.846.772,4.42,4.42,0,0,1,4.31-.6h0l0.989,0.615,0.036-.012-0.033.018h0a3.948,3.948,0,0,1,1.2,1.877,2.508,2.508,0,0,1,.241,1.269Q311.347,800.823,311.342,804.987Zm1.346-8.122a5.843,5.843,0,0,0-.336-2.015,5.843,5.843,0,0,1,.336,2.015,0.7,0.7,0,0,0-.429.2A0.7,0.7,0,0,1,312.688,796.865Zm-0.414,7.242a0.187,0.187,0,0,0,.006.078A0.187,0.187,0,0,1,312.274,804.107Zm0.375,0.113h0c0.013,0.681.028,1.362,0.039,2.044C312.677,805.582,312.662,804.9,312.649,804.22Zm-17.688,49.843,0,0-0.006.006Zm1.752-18.285a3.957,3.957,0,0,1-.028-0.451,4.322,4.322,0,0,0-2.172-2.369,15.378,15.378,0,0,0-1.728-.724,5.478,5.478,0,0,1-2.061-1.042,2.24,2.24,0,0,1-.613-2.671,1.979,1.979,0,0,1,1.905-1.282l0.856-.025c-0.016-.224.023-0.452,0.018-0.684,0,0.232-.033.46-0.018,0.684l0.255,0.012,0.222,0.12c0.034-.006.066-0.013,0.1-0.021-0.031.008-.063,0.015-0.1,0.021a0.2,0.2,0,0,0,.22.122,2.757,2.757,0,0,1,.81,1.248,1.136,1.136,0,0,1,.247.794,0.51,0.51,0,0,0,.661.59,0.343,0.343,0,0,1,.056-0.008c1.416-.057,1.415-0.057,1.158-1.454-0.017-.091-0.017-0.184-0.025-0.276-0.128-.267-0.237-0.544-0.388-0.8a1.8,1.8,0,0,0-1.018-1.044,0.161,0.161,0,0,0-.146-0.19,2.5,2.5,0,0,0-.984-0.538,1.183,1.183,0,0,1-.918-0.657,2.722,2.722,0,0,1-.323-1.344,0.315,0.315,0,0,0-.389-0.35,5.581,5.581,0,0,1-.562-0.037l-0.177.055-0.051.138q0,0.909,0,1.819c0.108,0.163.05,0.221-.129,0.2a3.961,3.961,0,0,0-2.612,6.416l0.089,0.106,0.021,0.021,0.088,0.1,0.271,0.315a15.989,15.989,0,0,0,3.494,1.577,3.65,3.65,0,0,1,1.62,1.105,0.7,0.7,0,0,1,.248.547,0.094,0.094,0,0,1,.028.069l0.073,0.154a2.085,2.085,0,0,1-.962,2.454,3.373,3.373,0,0,1-2.92.15,2.377,2.377,0,0,1-1.348-1.713c-0.254-.869-0.195-0.886-1.116-0.888a3.65,3.65,0,0,1-.456,0c-0.394-.051-0.482.138-0.467,0.5a4.536,4.536,0,0,0,1.2,2.929,6.983,6.983,0,0,0,2.442,1.017,0.216,0.216,0,0,1,.216.222,4.867,4.867,0,0,1,.009,1.519c0.168,0.388.528,0.1,0.773,0.218,0.82-.045.82-0.045,0.814-0.91-0.007-.967-0.007-0.967.923-1.214A3.715,3.715,0,0,0,296.713,835.778Zm-1.9-8.422a0.779,0.779,0,0,0-.041.3A0.779,0.779,0,0,1,294.809,827.356Zm-0.771-.808-0.009.007Zm-0.061.664a0.355,0.355,0,0,1-.048.079A0.355,0.355,0,0,0,293.977,827.212Zm-0.849-.508a0.521,0.521,0,0,1,.212-0.137,0.387,0.387,0,0,1,.118-0.016,0.387,0.387,0,0,0-.118.016,0.521,0.521,0,0,0-.212.137,0.25,0.25,0,0,0-.08.232A0.25,0.25,0,0,1,293.128,826.7Zm-9.815-10.692q-4.4,0-8.805,0v0h-1.086q-3.888,0-7.776,0c-0.421,0-.8.076-0.8,0.585a0.629,0.629,0,0,0,.8.591h0.172q8.691,0,17.381,0a1.215,1.215,0,0,0,.617-0.068,0.539,0.539,0,0,0,.291-0.8A0.757,0.757,0,0,0,283.313,816.012Zm-8.8.956q-4.377,0-8.755,0,4.377,0,8.755,0h0Zm-9.128-6.046c0.17,0.017.342,0.01,0.514,0.01h8.578v0c2.993,0,5.986,0,8.978,0a0.591,0.591,0,1,0,.043-1.162,2.478,2.478,0,0,0-.286,0l-17.327,0a3.255,3.255,0,0,0-.514.012A0.57,0.57,0,0,0,265.381,810.922Zm23.642,0a2.256,2.256,0,0,0,.285.009h7.14a1.34,1.34,0,0,0,.4-0.027,0.535,0.535,0,0,0,.407-0.6,0.393,0.393,0,0,0-.471-0.429,0.165,0.165,0,0,0-.181-0.1l-6.92.022a5.461,5.461,0,0,0-.626-0.014,0.523,0.523,0,0,0-.555.523A0.542,0.542,0,0,0,289.023,810.923Zm8.029,5.33c-0.111-.381-0.434-0.234-0.664-0.235-2.232-.012-4.465-0.008-6.7-0.007-0.229,0-.459-0.008-0.686.01a0.569,0.569,0,0,0-.093,1.115,1.941,1.941,0,0,0,.451.047q3.52,0,7.04,0a1.4,1.4,0,0,0,.5-0.065,0.481,0.481,0,0,0,.155-0.851Zm-13.111,10.474a0.606,0.606,0,0,0-.681-0.4c-0.057,0-.115,0-0.172,0q-5.867,0-11.731,0c-0.189,0-.377.03-0.565,0.045l-1.137-.033h0l-0.695,0-0.333.01h0l-1.049,0c0,0.068,0,.136.005,0.2h0c0-.068,0-0.136-0.005-0.2l-0.435,0c-0.033.1-.061,0.185-0.083,0.267a2.226,2.226,0,0,0-.049.222,2.226,2.226,0,0,1,.049-0.222c0.022-.082.05-0.17,0.083-0.267l-1.053-.008h0l-0.674,0a0.351,0.351,0,0,0-.368.075c-0.426.064-.352,0.4-0.321,0.661a0.427,0.427,0,0,0,.572.378,17.179,17.179,0,0,0,3.2.018c0-.1,0-0.19,0-0.285s0-.189,0-0.283c-0.005.094,0,.188,0,0.283s0,0.19,0,.285l0.465,0,0.245-.034H269.4l0.25,0.028,1.145-.02a1.423,1.423,0,0,0,.222.035q6.1,0,12.207,0c0.136,0,.31.075,0.4-0.113h0A0.491,0.491,0,0,0,283.941,826.727Zm-16.941.21a0.843,0.843,0,0,0,0,.086A0.843,0.843,0,0,1,267,826.937Zm2.9-.1a0.1,0.1,0,0,0,0-.043A0.1,0.1,0,0,1,269.9,826.835Z" transform="translate(-257.969 -791.031)"/>
</svg>
