<svg xmlns="http://www.w3.org/2000/svg" viewBox="0 0 41.97 38.96"><defs><style>.cls-1{fill:#fff;}</style></defs><title>Asset 10</title><g id="Layer_2" data-name="Layer 2"><g id="Layer_1-2" data-name="Layer 1"><path class="cls-1" d="M41.12,34.27,30.81,24.56a15.1,15.1,0,0,0,2.79-8.73C33.6,7.1,26.06,0,16.8,0S0,7.1,0,15.83,7.54,31.67,16.8,31.67a17.43,17.43,0,0,0,10-3.13L37,38.16a3,3,0,0,0,2.06.8,3.07,3.07,0,0,0,2.06-.8l.15-.16A2.64,2.64,0,0,0,41.12,34.27ZM5.82,15.83c0-5.7,4.93-10.35,11-10.35s11,4.65,11,10.35-4.93,10.35-11,10.35S5.82,21.54,5.82,15.83Z"/></g></g></svg>